<svg xmlns="http://www.w3.org/2000/svg" width="12" height="12" viewBox="0 0 12 12">
  <path fill="currentColor" fill-rule="nonzero" stroke="currentColor" d="M11 4.857c-.001 1.133-.585 2.193-1.605 3.165-.74.704-1.65 1.308-2.554 1.771-.18.092-.351.15-.514.181a1.36 1.36 0 0 1-.293.025 1.524 1.524 0 0 1-.324-.026 1.927 1.927 0 0 1-.527-.185c-1.042-.536-1.868-1.06-2.591-1.732C1.575 7.11 1 6.05 1 4.857 1 3.375 2.348 2 3.917 2c.795 0 1.536.29 2.083.792.714-.638 1.705-.923 2.723-.734C10.117 2.317 11 3.472 11 4.858v-.001z"/>
</svg>
